<svg xmlns="http://www.w3.org/2000/svg" xmlns:xlink="http://www.w3.org/1999/xlink"><defs>
<clipPath id="clip0_248_2190">
<rect width="25" height="25" fill="white"/>
</clipPath>

<clipPath id="clip0_248_2550">
<rect width="15" height="14" fill="white"/>
</clipPath>

<clipPath id="clip0_248_2161">
<rect width="25" height="25" fill="white"/>
</clipPath>

<clipPath id="clip0_131_2514">
<rect width="22" height="22" fill="white"/>
</clipPath>

<clipPath id="clip0_248_2173">
<rect width="23" height="23" fill="white"/>
</clipPath>

<clipPath id="clip0_131_2519">
<rect width="22" height="22" fill="white"/>
</clipPath>
</defs><symbol id="arrow-right" viewBox="0 0 9 14"><g fill="none">
<path d="M1 13L7 7L0.999999 1" stroke="#2D383F" stroke-width="2"/>
</g></symbol><symbol id="arrow" viewBox="0 0 14 9"><g fill="none">
<path d="M0.646446 4.85355C0.451184 4.65829 0.451184 4.34171 0.646446 4.14645L3.82843 0.964466C4.02369 0.769204 4.34027 0.769204 4.53553 0.964466C4.7308 1.15973 4.7308 1.47631 4.53553 1.67157L1.70711 4.5L4.53553 7.32843C4.7308 7.52369 4.7308 7.84027 4.53553 8.03553C4.34027 8.2308 4.02369 8.2308 3.82843 8.03553L0.646446 4.85355ZM14 5H1V4H14V5Z" fill="white"/>
</g></symbol><symbol id="boots" viewBox="0 0 24 24"><g fill="none">
<path d="M23.6583 15.6155C24.404 13.2805 23.7904 10.6301 23.1385 8.79354C23.1342 8.72248 23.1123 8.65361 23.0746 8.59327C22.853 7.99671 22.6484 7.50669 22.4737 7.15302C22.7953 7.02497 23.0075 6.71509 23.0106 6.36898V2.8195C23.0106 2.34881 22.6291 1.96729 22.1584 1.96729H11.6889C11.4536 1.96686 11.2625 2.15728 11.2621 2.39265C11.2621 2.40144 11.2624 2.41023 11.2628 2.41896C11.4077 4.97561 11.2202 6.70987 10.6791 7.9328C10.6683 7.94494 10.6583 7.95778 10.6492 7.97115C10.6476 7.9924 10.6476 8.01381 10.6492 8.03506C10.4427 8.48024 10.1633 8.88776 9.82259 9.24095L9.78424 9.26652C9.78424 9.26652 9.78424 9.26652 9.78424 9.29634C9.28468 9.77279 8.70853 10.1617 8.07981 10.4468C6.98439 10.9329 5.86021 11.3512 4.71355 11.6996L4.49624 11.772C0.512129 13.093 -0.00772321 15.4877 0.000798953 16.6893C-0.000266318 16.7064 -0.000266318 16.7234 0.000798953 16.7404V19.7829C0.00143811 19.9309 0.07883 20.068 0.205331 20.1451C1.18176 20.7392 2.23574 21.1951 3.33722 21.5001C3.56375 21.5638 3.79907 21.4318 3.86278 21.2052C3.87476 21.1625 3.88003 21.1182 3.87838 21.074V20.976H4.50476V21.4021C4.50204 21.6132 4.65433 21.7944 4.86269 21.8282C5.23341 21.8878 5.60412 21.9347 5.96631 21.9645C6.08498 21.9745 6.20243 21.9343 6.29015 21.8537C6.37783 21.7724 6.42731 21.658 6.42651 21.5384V21.0015H7.05289V21.6066C7.05289 21.8419 7.24368 22.0327 7.479 22.0327C7.83693 22.0327 8.19486 22.0327 8.57835 21.9816C8.8003 21.9638 8.97107 21.7781 8.97037 21.5555V21.0015H9.59675V21.3765C9.59372 21.6118 9.782 21.8051 10.0173 21.8081C10.042 21.8084 10.0666 21.8066 10.091 21.8026C10.8732 21.6828 11.6442 21.499 12.3963 21.2529L12.4645 21.2231C15.4472 19.5187 17.3391 20.9206 17.4158 20.9802C17.4902 21.038 17.5816 21.0694 17.6758 21.0697H18.2041C18.4395 21.0697 18.6302 20.8789 18.6302 20.6436V19.9235H19.2396V20.6351C19.2396 20.8704 19.4304 21.0612 19.6657 21.0612H21.0378C21.2731 21.0612 21.4639 20.8704 21.4639 20.6351V19.9235H22.0945V20.6351C22.0945 20.8704 22.2853 21.0612 22.5206 21.0612H23.5731C23.8084 21.0612 23.9992 20.8704 23.9992 20.6351V16.0416C24.0034 15.8359 23.8599 15.6566 23.6583 15.6155ZM13.5468 2.82802H13.8962H22.1371V6.3562H13.5468V2.82802ZM8.1906 11.3246L8.19486 11.3502C8.54416 11.6338 8.86651 11.949 9.15786 12.2919C9.08058 12.4204 9.04073 12.568 9.04281 12.718C9.03988 13.1675 9.40191 13.5342 9.85135 13.5371C10.3008 13.5401 10.6676 13.178 10.6705 12.7286C10.6733 12.3051 10.3509 11.9504 9.92912 11.9126C9.6596 11.5452 9.35254 11.2067 9.01298 10.9028C9.39377 10.686 9.75202 10.432 10.0825 10.1443C10.4958 10.532 10.8803 10.9493 11.233 11.3928C11.0848 11.8171 11.3086 12.2813 11.7329 12.4296C12.1572 12.5778 12.6214 12.354 12.7697 11.9297C12.9179 11.5053 12.6941 11.0412 12.2698 10.8929C12.1817 10.8621 12.0891 10.8467 11.9957 10.8474H11.8935C11.5197 10.3768 11.1125 9.93396 10.6748 9.52218C10.8779 9.27211 11.0576 9.00398 11.2117 8.7211C11.8714 9.06449 12.5089 9.44873 13.1207 9.87159C13.1165 10.3258 13.4813 10.6973 13.9354 10.7015C14.3896 10.7057 14.7612 10.3409 14.7654 9.88677C14.7696 9.43259 14.4048 9.06102 13.9506 9.05682C13.8209 9.05559 13.6927 9.0851 13.5766 9.14294C12.9327 8.70704 12.2624 8.31145 11.5696 7.95836C12.0341 6.72265 12.2344 5.08214 12.1406 2.84507H12.6988V6.37324C12.6988 6.84393 13.0803 7.22546 13.551 7.22546H21.5363C21.6471 7.4513 21.8346 7.84331 22.0391 8.35464H21.8644C19.2758 8.37334 17.1925 10.4869 17.2112 13.0755C17.2218 14.5465 17.9224 15.9272 19.1032 16.8044C15.656 17.712 10.4703 18.79 6.10693 18.5088C6.91227 15.2917 5.94927 13.3103 5.32289 12.441C6.2983 12.1211 7.25561 11.7484 8.1906 11.3246ZM4.46641 12.6839C4.92661 13.2251 6.12823 15.0445 5.24619 18.3895C3.71082 18.2688 2.2196 17.8182 0.874321 17.0686C0.859034 16.9712 0.849074 16.873 0.844493 16.7745V16.7447C0.810404 15.8371 1.15129 13.8727 4.46641 12.6839ZM22.9467 20.209V19.4974C22.9467 19.262 22.7559 19.0713 22.5206 19.0713H21.042C20.8067 19.0713 20.6159 19.262 20.6159 19.4974V20.209H20.0918V19.4974C20.0918 19.262 19.901 19.0713 19.6657 19.0713H18.1956C17.9603 19.0713 17.7695 19.262 17.7695 19.4974V20.1919C17.19 19.8297 15.0722 18.7772 12.0682 20.4561C11.5337 20.6325 10.9886 20.7748 10.4362 20.8822V20.5882C10.4362 20.3529 10.2454 20.1621 10.0101 20.1621H8.54C8.30469 20.1621 8.1139 20.3529 8.1139 20.5882V21.172H7.89658V20.5754C7.89658 20.3401 7.70579 20.1493 7.47047 20.1493H5.99188C5.75656 20.1493 5.56577 20.3401 5.56577 20.5754V21.0825L5.34845 21.0527V20.5754C5.34845 20.3401 5.15767 20.1493 4.92235 20.1493H3.44375C3.22702 20.1478 3.04364 20.3091 3.01764 20.5243C2.26136 20.2753 1.53308 19.9482 0.844493 19.5485V18.023C2.70232 19.0073 5.10557 19.3781 7.66222 19.3781C14.4544 19.3781 22.2266 16.7788 23.1427 16.4677L23.147 20.209H22.9467ZM22.7379 15.7135C22.3757 15.8328 21.4852 16.1396 20.2537 16.4677C18.3473 15.5451 17.5497 13.2516 18.4724 11.3451C19.1036 10.041 20.4158 9.20393 21.8644 9.18129C22.0324 9.17895 22.2003 9.18747 22.3672 9.20686L22.3715 9.21964C22.9979 11.0263 23.5603 13.6043 22.7379 15.7135Z" fill="#2D383F"/>
<path d="M15.1872 3.34375C14.5024 3.34375 13.9473 3.89892 13.9473 4.58372C13.9496 5.26757 14.5034 5.82135 15.1872 5.8237C15.872 5.8237 16.4272 5.26853 16.4272 4.58372C16.4272 3.89892 15.8721 3.34375 15.1872 3.34375ZM15.1872 4.97148C14.9731 4.97148 14.7995 4.7979 14.7995 4.58372C14.7995 4.36955 14.9731 4.19597 15.1872 4.19597C15.4014 4.19597 15.575 4.36955 15.575 4.58372C15.575 4.7979 15.4014 4.97148 15.1872 4.97148Z" fill="#2D383F"/>
</g></symbol><symbol id="cross" viewBox="0 0 22 22"><g fill="none">
<path d="M2 2L11 11M20 20L11 11M11 11L20 2L2 20" stroke="#2D383F" stroke-width="2"/>
</g></symbol><symbol id="duration" viewBox="0 0 22 22"><g fill="none">
<path d="M20.5272 12.382C20.3228 12.3307 20.1183 12.382 19.9394 12.5103C19.2748 13.0745 18.5081 13.5362 17.6646 13.844C16.8723 14.1518 16.0033 14.3057 15.0831 14.3057C13.0128 14.3057 11.1215 13.4593 9.76681 12.0999C8.41217 10.7405 7.56872 8.84251 7.56872 6.76497C7.56872 5.89291 7.72207 5.0465 7.97767 4.27704C8.25882 3.45628 8.66777 2.71247 9.20451 2.07125C9.43454 1.78912 9.38343 1.37874 9.10227 1.1479C8.92336 1.01966 8.71888 0.96836 8.51441 1.01966C6.34188 1.60958 4.4505 2.91766 3.09586 4.66177C1.79234 6.38024 1 8.50908 1 10.8431C1 13.6388 2.12461 16.178 3.96487 18.0247C5.80513 19.8715 8.3355 21 11.1215 21C13.4729 21 15.6454 20.1792 17.3835 18.8199C19.147 17.4348 20.425 15.4599 20.9618 13.2028C21.0895 12.8181 20.8851 12.459 20.5272 12.382ZM16.6167 17.7426C15.1342 18.9225 13.2429 19.6406 11.1726 19.6406C8.74444 19.6406 6.54635 18.6403 4.96168 17.0501C3.37701 15.4599 2.3802 13.2541 2.3802 10.8175C2.3802 8.79122 3.04474 6.94451 4.1949 5.45688C4.98724 4.43094 5.98405 3.58453 7.13421 2.99461C7.00642 3.27674 6.87862 3.55888 6.77638 3.86666C6.44411 4.79002 6.29076 5.76467 6.29076 6.79062C6.29076 9.22724 7.28757 11.4587 8.87224 13.0489C10.4569 14.6391 12.6806 15.6394 15.1087 15.6394C16.1822 15.6394 17.2045 15.4599 18.1502 15.1008C18.4825 14.9726 18.8148 14.8443 19.1215 14.6904C18.5081 15.8703 17.6646 16.9219 16.6167 17.7426Z" fill="#2D383F"/>
</g></symbol><symbol id="eco" viewBox="0 0 22 22"><g fill="none">
<path d="M10.6903 16.2442C10.0125 13.3813 8.01953 10.9718 5.27543 9.69773C3.92399 9.07026 2.46282 8.75181 1 8.74238C1.08555 10.771 1.83429 12.7457 3.17529 14.367C5.06036 16.646 7.9121 17.9803 10.933 17.9998C10.9083 17.4135 10.828 16.8259 10.6903 16.2442ZM10.6903 16.2442C10.1339 13.894 8.69109 11.8494 6.67408 10.4875C6.70814 10.2845 6.74903 10.0818 6.79684 9.87988C7.37026 7.4577 8.88519 5.36004 11 4C13.1147 5.36004 14.6297 7.4577 15.2031 9.87988C15.2509 10.0818 15.2918 10.2845 15.3258 10.4875C13.3088 11.8493 11.8661 13.894 11.3097 16.2442M10.6903 16.2442C10.8279 16.8257 10.9082 17.4131 10.933 17.9992C10.9748 17.9997 11.0166 18 11.0585 18C11.9054 18 12.7394 17.8966 13.5431 17.698C13.5477 17.692 13.5522 17.6859 13.5567 17.6799C12.752 17.8849 11.9162 17.9943 11.067 17.9998M11.3097 16.2442C11.9875 13.3813 13.9805 10.9718 16.7246 9.69773C18.076 9.07026 19.5372 8.75181 21 8.74238C20.9144 10.771 20.1657 12.7457 18.8247 14.367C16.9396 16.646 14.0879 17.9803 11.067 17.9998M11.3097 16.2442C11.172 16.8259 11.0917 17.4135 11.067 17.9998" stroke="#0266C1" stroke-linecap="round" stroke-linejoin="round"/>
</g></symbol><symbol id="eqiup" viewBox="0 0 22 22"><g fill="none">
<path d="M20.7153 14.2434C21.3367 12.1487 20.8254 9.77108 20.2821 8.12359C20.2785 8.05985 20.2602 7.99807 20.2288 7.94394C20.0442 7.40879 19.8737 6.96921 19.7281 6.65194C19.9961 6.53708 20.1729 6.25909 20.1755 5.94861V2.76449C20.1755 2.34225 19.8576 2 19.4654 2H10.7408C10.5447 1.99962 10.3854 2.17043 10.3851 2.38158C10.3851 2.38946 10.3853 2.39735 10.3857 2.40518C10.5064 4.69866 10.3502 6.25441 9.89923 7.35146C9.89026 7.36235 9.88196 7.37386 9.87437 7.38586C9.87304 7.40492 9.87304 7.42413 9.87437 7.44319C9.70224 7.84255 9.46943 8.20812 9.1855 8.52495L9.15354 8.54789C9.15354 8.54789 9.15354 8.54789 9.15354 8.57465C8.73724 9.00205 8.25711 9.35094 7.73318 9.60671C6.82033 10.0427 5.88351 10.418 4.92796 10.7305L4.74687 10.7955C1.42677 11.9805 0.993564 14.1287 1.00067 15.2066C0.999778 15.2219 0.999778 15.2372 1.00067 15.2525V17.9817C1.0012 18.1146 1.06569 18.2376 1.17111 18.3066C1.9848 18.8396 2.86311 19.2486 3.78102 19.5222C3.9698 19.5793 4.1659 19.4609 4.21898 19.2577C4.22897 19.2194 4.23336 19.1797 4.23199 19.1399V19.052H4.75397V19.4343C4.75171 19.6236 4.87861 19.7862 5.05225 19.8165C5.36117 19.87 5.6701 19.9121 5.97193 19.9388C6.07082 19.9478 6.16869 19.9117 6.2418 19.8395C6.31486 19.7665 6.35609 19.6639 6.35543 19.5566V19.075H6.87741V19.6178C6.87741 19.8288 7.0364 20 7.2325 20C7.53077 20 7.82905 20 8.14863 19.9541C8.33359 19.9382 8.47589 19.7716 8.47531 19.5719V19.075H8.9973V19.4113C8.99477 19.6224 9.15167 19.7958 9.34777 19.7985C9.36832 19.7988 9.38887 19.7972 9.4092 19.7936C10.061 19.6861 10.7035 19.5212 11.3302 19.3005L11.3871 19.2737C13.8727 17.7447 15.4493 19.0023 15.5132 19.0559C15.5752 19.1076 15.6513 19.1358 15.7298 19.1361H16.1701C16.3662 19.1361 16.5252 18.965 16.5252 18.7539V18.1079H17.033V18.7462C17.033 18.9573 17.192 19.1285 17.3881 19.1285H18.5315C18.7276 19.1285 18.8866 18.9573 18.8866 18.7462V18.1079H19.4121V18.7462C19.4121 18.9573 19.5711 19.1285 19.7672 19.1285H20.6443C20.8404 19.1285 20.9993 18.9573 20.9993 18.7462V14.6256C21.0028 14.4411 20.8833 14.2803 20.7153 14.2434ZM12.289 2.77214H19.4476V5.93714H12.289V2.77214ZM7.8255 10.3941L7.82905 10.4171C8.12014 10.6715 8.38876 10.9543 8.63155 11.2618C8.56715 11.3771 8.53395 11.5095 8.53568 11.6441C8.53324 12.0473 8.83493 12.3763 9.20946 12.3789C9.58404 12.3815 9.88964 12.0568 9.89208 11.6536C9.89439 11.2737 9.62572 10.9555 9.27427 10.9216C9.04967 10.592 8.79379 10.2884 8.51082 10.0157C8.82814 9.8213 9.12668 9.59338 9.4021 9.33532C9.74649 9.68311 10.0669 10.0574 10.3608 10.4553C10.2373 10.836 10.4238 11.2523 10.7774 11.3854C11.131 11.5183 11.5178 11.3176 11.6414 10.9369C11.7649 10.5563 11.5784 10.1399 11.2248 10.0069C11.1515 9.97926 11.0742 9.96545 10.9965 9.96602H10.9112C10.5998 9.54393 10.2604 9.14663 9.89567 8.77724C10.0649 8.5529 10.2147 8.31238 10.3431 8.05861C10.8928 8.36665 11.4241 8.71135 11.9339 9.09068C11.9304 9.49811 12.2344 9.83143 12.6129 9.8352C12.9914 9.83897 13.301 9.51172 13.3045 9.1043C13.308 8.69687 13.004 8.36355 12.6255 8.35977C12.5174 8.35868 12.4106 8.38515 12.3138 8.43704C11.7773 8.046 11.2187 7.69113 10.6414 7.37439C11.0284 6.26587 11.1953 4.79422 11.1172 2.78743H11.5824V5.95243C11.5824 6.37467 11.9003 6.71693 12.2925 6.71693H18.9469C19.0392 6.91952 19.1955 7.27118 19.3659 7.72988H19.2203C17.0632 7.74665 15.3271 9.64269 15.3427 11.9648C15.3515 13.2844 15.9353 14.5229 16.9194 15.3098C14.0467 16.124 9.72523 17.0911 6.08911 16.8388C6.76023 13.9529 5.95773 12.1754 5.43574 11.3956C6.24859 11.1086 7.04634 10.7743 7.8255 10.3941ZM4.72201 11.6135C5.10551 12.099 6.10686 13.7312 5.37183 16.7318C4.09235 16.6235 2.84967 16.2193 1.7286 15.5468C1.71586 15.4595 1.70756 15.3714 1.70374 15.2831V15.2563C1.67534 14.4421 1.95941 12.68 4.72201 11.6135ZM20.1223 18.364V17.7256C20.1223 17.5145 19.9633 17.3434 19.7672 17.3434H18.535C18.3389 17.3434 18.1799 17.5145 18.1799 17.7256V18.364H17.7432V17.7256C17.7432 17.5145 17.5842 17.3434 17.3881 17.3434H16.163C15.9669 17.3434 15.8079 17.5145 15.8079 17.7256V18.3487C15.325 18.0238 13.5602 17.0796 11.0568 18.5857C10.6114 18.7439 10.1572 18.8716 9.69683 18.9679V18.7042C9.69683 18.4931 9.53783 18.3219 9.34173 18.3219H8.11667C7.92058 18.3219 7.76158 18.4931 7.76158 18.7042V19.2279H7.58049V18.6927C7.58049 18.4816 7.4215 18.3105 7.2254 18.3105H5.99323C5.79714 18.3105 5.63814 18.4816 5.63814 18.6927V19.1476L5.45705 19.1208V18.6927C5.45705 18.4816 5.29806 18.3105 5.10196 18.3105H3.86979C3.68919 18.3091 3.53637 18.4538 3.5147 18.6468C2.88446 18.4235 2.27757 18.1301 1.70374 17.7715V16.4031C3.25194 17.286 5.25465 17.6186 7.38519 17.6186C13.0453 17.6186 19.5222 15.2869 20.2856 15.0079L20.2892 18.364H20.1223ZM19.9483 14.3313C19.6465 14.4383 18.9043 14.7135 17.8781 15.0079C16.2894 14.1801 15.6248 12.1228 16.3937 10.4125C16.9197 9.24267 18.0132 8.49175 19.2203 8.47144C19.3603 8.46934 19.5003 8.47698 19.6394 8.49437L19.6429 8.50584C20.1649 10.1266 20.6336 12.4392 19.9483 14.3313Z" fill="#0266C1"/>
<path d="M13.6564 3.23469C13.0857 3.23469 12.6231 3.73271 12.6231 4.34703C12.625 4.96049 13.0865 5.45727 13.6564 5.45937C14.227 5.45937 14.6897 4.96135 14.6897 4.34703C14.6897 3.73271 14.2271 3.23469 13.6564 3.23469ZM13.6564 4.69487C13.4779 4.69487 13.3332 4.53916 13.3332 4.34703C13.3332 4.1549 13.4779 3.99918 13.6564 3.99918C13.8348 3.99918 13.9795 4.1549 13.9795 4.34703C13.9795 4.53916 13.8348 4.69487 13.6564 4.69487Z" fill="#0266C1"/>
</g></symbol><symbol id="icon-close" viewBox="0 0 20 20"><g fill="none"><path d="M.293 18.291a1 1 0 101.414 1.414L10 11.413l8.292 8.292a1 1 0 101.414-1.414l-8.292-8.292 8.292-8.292A1 1 0 1018.291.293L9.999 8.585 1.707.293A1 1 0 10.293 1.707L8.585 10 .293 18.291z"/></g></symbol><symbol id="knowledge" viewBox="0 0 22 22"><g fill="none">
<path d="M17.6867 20H4.31331M21 7.11028L18.0746 16.8049H3.92539L1 7.11028L6.77168 10.6142L11 2L15.2283 10.6142L21 7.11028Z" stroke="#0266C1"/>
</g></symbol><symbol id="level" viewBox="0 0 22 22"><g fill="none">
<path d="M20 21H16.4V1H20V21Z" stroke="#2D383F" stroke-miterlimit="16" stroke-linecap="round"/>
<path d="M12.8 21V6.45455H9.2L9.2 21H12.8Z" stroke="#2D383F" stroke-miterlimit="16" stroke-linecap="round"/>
<path d="M5.6 21V11.9091H2V21H5.6Z" stroke="#2D383F" stroke-miterlimit="16" stroke-linecap="round"/>
</g></symbol><symbol id="mail" viewBox="0 0 22 22"><g fill="none">
<path d="M21 5.55556V16.4444C21 17.3036 20.3604 18 19.5714 18H2.42857C1.63959 18 1 17.3036 1 16.4444V5.55556M21 5.55556C21 4.69645 20.3604 4 19.5714 4H2.42857C1.63959 4 1 4.69645 1 5.55556M21 5.55556L12.8594 13.1534C11.7895 14.152 10.2106 14.152 9.14062 13.1534L1 5.55556" stroke="#2D383F" stroke-linecap="round" stroke-linejoin="round"/>
</g></symbol><symbol id="map" viewBox="0 0 25 25"><g fill="none">
<g clip-path="url(#clip0_248_2190)">
<path d="M24.1704 22.2803V6.70123C24.1823 6.44571 23.9848 6.22897 23.7293 6.2171C23.6748 6.21456 23.6204 6.22168 23.5684 6.23812V6.26127L21.4844 6.91426C21.7026 6.33016 21.8321 5.71665 21.8688 5.09423C21.8688 2.28077 19.588 0 16.7745 0C13.9611 0 11.6803 2.28077 11.6803 5.09423C11.7128 5.68754 11.833 6.27279 12.0369 6.8309L8.59135 5.59902C8.55135 5.5941 8.51094 5.5941 8.47094 5.59902H8.43389C8.37837 5.60001 8.32344 5.61101 8.2718 5.63144L1.12598 8.41011C0.961171 8.47281 0.846262 8.62361 0.82959 8.79913V16.246V24.3967C0.830342 24.6525 1.03828 24.8592 1.29409 24.8585C1.35065 24.8583 1.40669 24.8478 1.45942 24.8274L8.44315 22.1229L16.4087 24.9756C16.5048 25.0081 16.6089 25.0081 16.7051 24.9756L23.8463 22.7434C24.0469 22.6806 24.18 22.4904 24.1704 22.2803ZM16.7745 0.926224C19.0765 0.926224 20.9425 2.79228 20.9425 5.09423C20.9425 6.905 18.2241 11.9066 16.7745 14.3565C15.325 11.8881 12.6065 6.88184 12.6065 5.09423C12.6065 2.79228 14.4726 0.926224 16.7745 0.926224ZM23.2581 21.9608L17.0246 23.9105V20.3769C17.0246 20.1212 16.8173 19.9138 16.5615 19.9138C16.3057 19.9138 16.0984 20.1212 16.0984 20.3769V23.8781L8.90163 21.3032V18.3392C8.90163 18.0835 8.69427 17.8761 8.43852 17.8761C8.18277 17.8761 7.97541 18.0835 7.97541 18.3392V21.3032L1.75581 23.7252V16.5655L4.04359 15.6393C4.2884 15.5652 4.42675 15.3067 4.35266 15.0618C4.27856 14.817 4.02003 14.6787 3.77521 14.7528C3.74963 14.7605 3.72473 14.7705 3.70083 14.7825L1.75576 15.5652V9.11868L7.97535 6.71049V8.09983C7.97535 8.35558 8.18271 8.56294 8.43846 8.56294C8.69421 8.56294 8.90157 8.35558 8.90157 8.09983V6.69197L12.4536 7.96553C13.5928 10.5687 14.9032 13.0936 16.3762 15.5235C16.5088 15.7422 16.7936 15.8119 17.0123 15.6793C17.076 15.6407 17.1295 15.5872 17.1681 15.5235C18.6339 13.1079 19.9396 10.5985 21.0768 8.01184L23.2442 7.33106L23.258 14.9215L20.9101 15.4911C20.6543 15.5218 20.4718 15.754 20.5025 16.0098C20.5332 16.2655 20.7655 16.448 21.0212 16.4173C21.0581 16.4218 21.0954 16.4218 21.1324 16.4173L23.258 15.8986V21.9608H23.2581Z" fill="#2D383F"/>
<path d="M16.7556 2.40332C15.2696 2.40332 14.0649 3.60799 14.0649 5.094C14.0649 6.58001 15.2696 7.78468 16.7556 7.78468C18.2406 7.78213 19.4438 6.57897 19.4463 5.094C19.4463 3.60799 18.2416 2.40332 16.7556 2.40332ZM16.7556 6.85846C15.7895 6.84584 15.0121 6.06028 15.0097 5.094H14.9912C14.9912 4.1195 15.7811 3.32954 16.7556 3.32954C17.7301 3.32954 18.5201 4.1195 18.5201 5.094C18.5201 6.0685 17.7301 6.85846 16.7556 6.85846Z" fill="#2D383F"/>
<path d="M10.6981 13.9672V13.9811L8.45661 13.0132C8.34251 12.9656 8.21411 12.9656 8.10001 13.0132L6.20589 13.7774C5.96802 13.8733 5.85294 14.1439 5.94886 14.3817C6.04478 14.6196 6.31536 14.7347 6.55322 14.6387L8.26673 13.9487L10.3276 14.8194C10.3861 14.8443 10.4492 14.8569 10.5128 14.8564C10.7686 14.8585 10.9776 14.6529 10.9797 14.3971C10.9812 14.2101 10.8701 14.0405 10.6981 13.9672Z" fill="#2D383F"/>
<path d="M18.27 16.6161C18.201 16.393 17.9766 16.2562 17.7467 16.2969L17.7513 16.2599L16.6028 16.5377L14.6578 15.6949C14.4224 15.5926 14.1487 15.7004 14.0465 15.9357C13.9442 16.171 14.052 16.4447 14.2873 16.547L16.3713 17.4732C16.4298 17.4982 16.4929 17.5108 16.5565 17.5103H16.6677L17.9644 17.1954C18.2087 17.1198 18.3455 16.8604 18.27 16.6161Z" fill="#2D383F"/>
</g>

</g></symbol><symbol id="mark-as-favorite-star" viewBox="0 0 15 14"><g fill="none">
<g clip-path="url(#clip0_248_2550)">
<path d="M7.74525 10.6055L7.5 10.4674L7.25475 10.6055L3.63071 12.6453L4.57642 8.85073L4.6535 8.54147L4.40569 8.34105L1.28779 5.81937L5.43318 5.48739L5.72674 5.46388L5.84852 5.19573L7.5 1.55927L9.15151 5.19574L9.27329 5.46388L9.56685 5.48739L13.7122 5.81937L10.5943 8.34105L10.3465 8.54147L10.4236 8.85073L11.3693 12.6453L7.74525 10.6055Z" stroke="white"/>
</g>

</g></symbol><symbol id="menu-burger" viewBox="0 0 22 22"><g fill="none">
<path d="M0 3H22V4.83609H0V3Z" fill="#2D383F"/>
<path d="M0 17.1639H22V19H0V17.1639Z" fill="#2D383F"/>
<path d="M0 10.082H14.08V11.918H0V10.082Z" fill="#2D383F"/>
</g></symbol><symbol id="mountain" viewBox="0 0 25 25"><g fill="none">
<g clip-path="url(#clip0_248_2161)">
<path d="M23.4153 24.1879L19.3747 14.7901L15.5583 5.9074C15.4551 5.665 15.1749 5.55224 14.9325 5.65546C14.8192 5.70376 14.7289 5.79404 14.6806 5.9074L11.2744 13.8121L9.93871 16.9177L7.00963 10.1579C6.90634 9.91551 6.62614 9.80274 6.3838 9.90596C6.27044 9.95427 6.18016 10.0445 6.13186 10.1579L3.37928 16.517L0.0399368 24.1831C-0.0654315 24.4246 0.0448861 24.7058 0.286333 24.8112C0.347037 24.8377 0.412572 24.8513 0.478822 24.851H22.9765C23.2399 24.8508 23.4533 24.6371 23.4531 24.3736C23.4531 24.3098 23.4402 24.2467 23.4153 24.1879ZM15.1147 7.29561L18.2107 14.4943H17.1231L15.1576 12.3237C14.9804 12.1287 14.6787 12.1143 14.4837 12.2916C14.4531 12.3194 14.4263 12.351 14.4039 12.3857L13.6692 13.5211H12.4384L15.1147 7.29561ZM6.57074 11.5318L9.018 17.1896H7.68226C7.52007 17.1899 7.36914 17.2726 7.28154 17.4091L6.80449 18.1676L5.57371 16.4311C5.48474 16.3028 5.33864 16.2262 5.18253 16.226H4.54805L6.57074 11.5318ZM1.22779 23.8969L4.13302 17.1801H4.93446L6.42285 19.3029C6.51182 19.4312 6.65792 19.5078 6.81403 19.5081C6.97283 19.5046 7.11947 19.4223 7.20522 19.2886L7.93987 18.1532H9.42826L11.9137 23.8778L1.22779 23.8969ZM12.9584 23.8969L10.4587 18.1246L12.0282 14.4752H13.9364C14.0986 14.4749 14.2495 14.3923 14.3371 14.2558L14.8666 13.44L16.5554 15.3053C16.6455 15.4052 16.7738 15.4624 16.9084 15.4627H18.6162L22.2466 23.9112L12.9584 23.8969Z" fill="#2D383F"/>
<path d="M7.61096 2.08189C7.16093 0.922602 5.85626 0.347698 4.69703 0.797794C3.83387 1.13286 3.26385 1.96221 3.26028 2.8881C3.25557 2.97075 3.25557 3.05352 3.26028 3.13617C2.13241 3.65997 1.64278 4.99893 2.16658 6.12679C2.52932 6.90778 3.30572 7.41351 4.16667 7.42961L4.19052 7.44869H7.52987C9.01188 7.47112 10.2314 6.28786 10.2538 4.80584C10.2762 3.32383 9.09298 2.10431 7.61096 2.08189ZM7.55849 6.50891H4.21914C3.50512 6.58267 2.86653 6.0637 2.79277 5.34968C2.719 4.63565 3.23797 3.99706 3.952 3.9233C4.21026 3.87124 4.37747 3.61972 4.32541 3.3614C4.32141 3.34166 4.31622 3.32216 4.30978 3.30314C4.26321 3.16968 4.23906 3.02943 4.23823 2.8881C4.23417 2.17146 4.81176 1.58725 5.52841 1.58314C6.16234 1.5795 6.70606 2.03448 6.81429 2.65912C6.85812 2.90993 7.09122 3.08208 7.34382 3.0503C7.41531 3.04559 7.48699 3.04559 7.55849 3.0503C8.51354 3.0503 9.28779 3.82455 9.28779 4.7796C9.28779 5.73466 8.51354 6.50891 7.55849 6.50891Z" fill="#2D383F"/>
<path d="M23.6966 2.63997C23.7013 2.55733 23.7013 2.47456 23.6966 2.39191C23.6917 1.14836 22.6797 0.144172 21.4362 0.148943C20.517 0.152521 19.6936 0.714604 19.3539 1.56727C17.8794 1.59816 16.7046 2.81392 16.7269 4.29057C16.7493 5.77258 17.9688 6.95584 19.4508 6.93342H22.7902C24.0335 6.91016 25.0226 5.88343 24.9994 4.64006C24.9833 3.77911 24.4776 3.00271 23.6966 2.63997ZM24.0559 4.94758C23.9296 5.54008 23.4102 5.96632 22.8045 5.97455H19.4651C18.5101 5.97455 17.7358 5.2003 17.7358 4.24525C17.7358 3.29019 18.5101 2.51594 19.4651 2.51594C19.5366 2.51123 19.6083 2.51123 19.6798 2.51594C19.9212 2.54099 20.1429 2.38088 20.195 2.14384C20.3146 1.43727 20.9843 0.961417 21.6909 1.08098C22.3975 1.20054 22.8734 1.87026 22.7538 2.57688C22.7416 2.64862 22.7235 2.71922 22.6995 2.78792C22.6153 3.03754 22.7494 3.3082 22.9991 3.39246C23.0181 3.3989 23.0376 3.40415 23.0573 3.40808C23.7582 3.5574 24.2053 4.24668 24.0559 4.94758Z" fill="#2D383F"/>
</g>

</g></symbol><symbol id="phone" viewBox="0 0 22 22"><g fill="none">
<g clip-path="url(#clip0_131_2514)">
<path d="M19.3236 20.0443C19.0034 20.6753 18.3438 21.0672 17.6426 20.9904C17.3412 20.9575 17.0402 20.9171 16.7396 20.8693C12.8229 20.2465 9.20304 18.3949 6.39895 15.5797C3.59486 12.7646 1.75046 9.1305 1.1301 5.19831C1.08254 4.89683 1.04236 4.59477 1.00952 4.29242C0.933062 3.58844 1.32346 2.92622 1.95195 2.60473L4.70244 1.19777C5.76693 0.653244 7.05498 1.28842 7.42933 2.42743C7.65638 3.11826 7.92452 3.79805 8.23342 4.4631C8.38821 4.79636 8.5524 5.12412 8.72567 5.44606C9.13588 6.20824 8.85917 7.18583 8.0736 7.54431C6.93267 8.06496 6.66094 9.56938 7.54713 10.4591L11.4995 14.427C12.3857 15.3167 13.8842 15.0439 14.4028 13.8985C14.7796 13.0663 15.8009 12.765 16.6118 13.1807C16.8084 13.2814 17.0071 13.3788 17.2078 13.4728C17.9681 13.8287 18.7478 14.1308 19.5413 14.3784C20.6964 14.7389 21.3521 16.0475 20.8029 17.1296L19.3236 20.0443Z" stroke="#2D383F" stroke-linecap="round" stroke-linejoin="round"/>
</g>

</g></symbol><symbol id="pin-filled" viewBox="0 0 22 22"><g fill="none">
<path d="M18.5 8.14732C18.5 4.19996 15.1421 1 11 1C6.85786 1 3.5 4.19996 3.5 8.14732V8.57782C3.5 10.1572 4.01784 11.6971 4.98114 12.9823L10.9852 20.9927C10.9924 21.0024 11.0076 21.0024 11.0148 20.9927L17.0189 12.9823C17.9822 11.6971 18.5 10.1572 18.5 8.57782V8.14732Z" fill="#0266C1"/>
<path d="M9.66733 5.76428C10.5095 5.38052 11.4905 5.38052 12.3327 5.76428C13.1748 6.14804 13.7865 6.87379 13.9945 7.73609C14.2025 8.59839 13.9842 9.50338 13.4014 10.1949C12.8186 10.8864 11.9347 11.2892 11 11.2892C10.0653 11.2892 9.18141 10.8864 8.59862 10.1949C8.01582 9.50338 7.79753 8.59839 8.00552 7.73609C8.21352 6.87379 8.82517 6.14804 9.66733 5.76428Z" fill="white"/>
</g></symbol><symbol id="pin" viewBox="0 0 22 22"><g fill="none">
<path d="M18.5 8.14732C18.5 4.19996 15.1421 1 11 1C6.85786 1 3.5 4.19996 3.5 8.14732V8.57782C3.5 10.1572 4.01784 11.6971 4.98114 12.9823L10.9852 20.9927C10.9924 21.0024 11.0076 21.0024 11.0148 20.9927L17.0189 12.9823C17.9822 11.6971 18.5 10.1572 18.5 8.57782V8.14732Z" stroke="#2D383F" stroke-linecap="round" stroke-linejoin="round"/>
<path d="M9.53407 5.28903C10.4604 4.86389 11.5396 4.86389 12.4659 5.28903C13.3923 5.71417 14.0651 6.51818 14.2939 7.47347C14.5227 8.42875 14.2826 9.43134 13.6415 10.1974C13.0004 10.9635 12.0282 11.4097 11 11.4097C9.9718 11.4097 8.99955 10.9635 8.35848 10.1974C7.7174 9.43134 7.47728 8.42875 7.70608 7.47347C7.93487 6.51818 8.60769 5.71417 9.53407 5.28903Z" stroke="#2D383F" stroke-linecap="round" stroke-linejoin="round"/>
</g></symbol><symbol id="pine-tree" viewBox="0 0 23 23"><g fill="none">
<g clip-path="url(#clip0_248_2173)">
<path d="M22.6246 16.6365L18.1102 11.472H20.2913C20.546 11.4714 20.7519 11.2644 20.7514 11.0098C20.7511 10.9084 20.7175 10.8099 20.6556 10.7296L17.0312 5.96623H18.8757C19.1304 5.96589 19.3365 5.75919 19.3363 5.50454C19.3361 5.39271 19.2953 5.28475 19.2215 5.20077L14.7856 0.156126C14.6172 -0.0348923 14.3257 -0.0531642 14.1347 0.115317C14.1202 0.128056 14.1066 0.141716 14.0939 0.156126L9.65332 5.19616C9.4827 5.38522 9.49763 5.67682 9.68663 5.84744C9.77229 5.92473 9.88376 5.9671 9.99916 5.96623H11.8667L10.7508 7.42337L7.76273 4.02492C7.5943 3.8339 7.30288 3.81563 7.11186 3.98411C7.09739 3.99685 7.08379 4.01051 7.07105 4.02492L3.27604 8.33639C3.10796 8.52769 3.12681 8.81906 3.31811 8.98714C3.40209 9.06092 3.51005 9.10167 3.62188 9.10184H5.08362L2.04946 13.0721C1.89919 13.2777 1.94398 13.5662 2.14958 13.7165C2.22636 13.7726 2.31864 13.8036 2.41374 13.8053H4.11988L0.370984 18.1167C0.205442 18.3102 0.228094 18.6013 0.421649 18.7669C0.503959 18.8373 0.608518 18.8765 0.716823 18.8776H5.8168V22.1054C5.8168 22.5994 6.21734 23 6.71138 23H8.11779C8.61182 23.0025 9.01444 22.6041 9.01697 22.11C9.01697 22.1085 9.01697 22.107 9.01697 22.1054V18.8776H12.8443V22.1054C12.8443 22.5994 13.2448 23 13.7388 23H15.1453C15.6393 23 16.0398 22.5994 16.0398 22.1054V17.402H22.2788C22.5334 17.4017 22.7396 17.195 22.7393 16.9403C22.7391 16.8285 22.6984 16.7205 22.6246 16.6365ZM8.09473 22.0777L6.73904 22.1054L6.71138 18.8776H8.09473V22.0777ZM12.8443 17.9553H1.73129L5.50324 13.6531C5.67397 13.4642 5.65916 13.1726 5.47021 13.0018C5.38214 12.9223 5.2668 12.8797 5.14818 12.883H3.34981L6.38398 8.91279C6.53932 8.71099 6.50168 8.42146 6.29988 8.26612C6.21953 8.20428 6.12109 8.17061 6.0197 8.17038H4.63634L7.40306 5.02094L10.1698 8.16116L8.22385 10.7342C8.06851 10.936 8.10615 11.2255 8.30795 11.3809C8.3883 11.4427 8.48674 11.4764 8.58813 11.4766H10.7738L6.25948 16.6411C6.0914 16.8325 6.11025 17.1238 6.30156 17.2919C6.38554 17.3657 6.4935 17.4064 6.60532 17.4066H12.8443V17.9553ZM15.1176 22.0685L13.7665 22.1054L13.7388 17.402H15.1222L15.1176 22.0685ZM15.1453 16.4798H7.61978L12.1341 11.3152C12.3022 11.1239 12.2834 10.8325 12.0921 10.6645C12.0081 10.5907 11.9001 10.5499 11.7883 10.5498H9.52421L13.167 5.78178C13.3199 5.57808 13.2786 5.28902 13.0749 5.13622C12.9963 5.07731 12.901 5.04497 12.8028 5.04399H11.0367L14.4582 1.16137L17.8612 5.04399H16.0813C15.8267 5.04463 15.6207 5.25155 15.6213 5.50621C15.6215 5.6076 15.6552 5.70605 15.717 5.7864L19.3368 10.5498H17.0912C16.8365 10.5501 16.6303 10.7568 16.6306 11.0115C16.6307 11.1233 16.6716 11.2312 16.7453 11.3152L21.2597 16.4798H15.1453Z" fill="#2D383F"/>
</g>

</g></symbol><symbol id="route" viewBox="0 0 22 22"><g fill="none">
<g clip-path="url(#clip0_131_2519)">
<path d="M18.1429 8.76743H12.7857C11.1091 8.76743 9.75 10.1366 9.75 11.8256C9.75 13.5145 11.1091 14.8837 12.7857 14.8837H15.1071C16.7837 14.8837 18.1429 16.2529 18.1429 17.9419C18.1429 19.6308 16.7837 21 15.1071 21H3.85714M6.71428 15.9302C6.71428 14.3406 5.4351 13.0519 3.85714 13.0519C2.27919 13.0519 1 14.3406 1 15.9302V16.0384C1 16.6695 1.1985 17.2845 1.56701 17.7949L3.8515 20.9593C3.85429 20.9632 3.86 20.9632 3.86279 20.9593L6.14727 17.7949C6.51578 17.2845 6.71428 16.6695 6.71428 16.0384V15.9302ZM4.40947 14.7454L4.42662 14.7535C4.77242 14.9183 5.02453 15.2332 5.11112 15.6086C5.19868 15.9881 5.10458 16.3904 4.86077 16.6929C4.61964 16.9921 4.25485 17.1691 3.87232 17.1691H3.84197C3.45944 17.1691 3.09464 16.9921 2.85352 16.6929C2.60971 16.3904 2.51561 15.9881 2.60316 15.6086C2.68975 15.2332 2.94186 14.9183 3.28767 14.7535L3.30482 14.7454C3.65446 14.5788 4.05982 14.5788 4.40947 14.7454ZM21 3.89849C21 2.30887 19.7208 1 18.1429 1C16.5649 1 15.2857 2.30887 15.2857 3.89849C15.2857 4.52339 15.4857 5.1384 15.8561 5.63972L18.1372 8.72766C18.14 8.73147 18.1457 8.73147 18.1485 8.72766L20.4297 5.63972C20.8 5.1384 21 4.52339 21 3.89849ZM18.6875 2.65136L18.7262 2.66941C19.0631 2.82627 19.3099 3.13018 19.3957 3.4939C19.4838 3.86694 19.3925 4.25998 19.1492 4.55491L19.137 4.56971C18.8999 4.85725 18.548 5.02359 18.1769 5.02359H18.1088C17.7377 5.02359 17.3858 4.85725 17.1487 4.56971L17.1365 4.55491C16.8932 4.25998 16.8019 3.86694 16.89 3.4939C16.9758 3.13018 17.2226 2.82627 17.5595 2.66941L17.5983 2.65136C17.9438 2.49048 18.342 2.49048 18.6875 2.65136Z" stroke="#0266C1" stroke-linecap="round"/>
</g>

</g></symbol><symbol id="safety" viewBox="0 0 22 22"><g fill="none">
<path d="M8.75001 10.912L11 13.1562L14.9375 9.22882M11 1C8.67869 2.18698 6.09257 2.81813 3.44902 2.81813C3.09212 2.81813 2.73627 2.80662 2.38197 2.7838C1.92463 4.87029 1.87403 7.04136 2.25148 9.17646C2.92717 12.9986 4.93142 16.4612 7.91222 18.9559C8.86795 19.7558 9.90448 20.4398 11 21C12.0955 20.4398 13.132 19.7558 14.0878 18.9559C17.0686 16.4612 19.0728 12.9986 19.7485 9.17647C20.126 7.04136 20.0754 4.87029 19.618 2.7838C19.2637 2.80662 18.9078 2.81813 18.5509 2.81813C15.9074 2.81813 13.3212 2.18698 11 1Z" stroke="#0266C1"/>
</g></symbol><symbol id="social media" viewBox="0 0 120 30"><g fill="none">
<rect opacity="0.3" x="90.5" y="0.5" width="29" height="29" stroke="#2D383F"/>
<path d="M106.362 7C105.913 7 105.491 7.24401 105.221 7.59589C104.951 7.94777 104.802 8.37671 104.694 8.82877C104.521 9.55565 104.468 10.3622 104.455 11.089C103.194 11.1789 102.051 11.5796 101.102 12.1986C100.717 11.8519 100.253 11.6592 99.8085 11.6644C99.3021 11.6695 98.8213 11.9033 98.4638 12.3836C97.7808 13.3005 97.8595 14.8005 98.651 15.6918C98.6021 15.9666 98.5659 16.2491 98.5659 16.5342C98.5659 19.5548 101.447 22 105 22C108.553 22 111.434 19.5522 111.434 16.5342C111.434 16.2491 111.398 15.9666 111.349 15.6918C112.14 14.8005 112.219 13.3005 111.536 12.3836C111.179 11.9033 110.698 11.6695 110.192 11.6644C109.747 11.6592 109.283 11.8519 108.898 12.1986C107.953 11.5822 106.817 11.1815 105.562 11.089C105.579 10.4187 105.623 9.7226 105.749 9.19863C105.828 8.86986 105.921 8.63099 106.021 8.5C106.121 8.36901 106.194 8.31507 106.362 8.31507C106.726 8.31507 106.772 8.44092 106.991 8.74658C107.102 8.90068 107.23 9.09332 107.434 9.28082C107.638 9.46832 107.94 9.63014 108.268 9.63014V8.31507C108.177 8.31507 108.16 8.3125 108.098 8.25342C108.036 8.19435 107.951 8.05822 107.826 7.88356C107.574 7.53168 107.087 7 106.362 7ZM109.902 7.12329C109.055 7.12329 108.37 7.95034 108.37 8.9726C108.37 9.99486 109.055 10.8219 109.902 10.8219C110.749 10.8219 111.434 9.99486 111.434 8.9726C111.434 7.95034 110.749 7.12329 109.902 7.12329ZM109.902 7.78082C110.447 7.78082 110.889 8.31507 110.889 8.9726C110.889 9.63014 110.447 10.1644 109.902 10.1644C109.357 10.1644 108.915 9.63014 108.915 8.9726C108.915 8.31507 109.357 7.78082 109.902 7.78082ZM105 12.1164C108.015 12.1164 110.566 14.143 110.566 16.5342C110.566 18.9281 108.015 20.9521 105 20.9521C101.985 20.9521 99.434 18.9281 99.434 16.5342C99.434 14.143 101.985 12.1164 105 12.1164ZM99.8255 12.7123C99.9766 12.7149 100.134 12.756 100.285 12.8356C99.7383 13.3365 99.3042 13.9118 99.0085 14.5616C98.8042 14.0531 98.8595 13.4187 99.1106 13.0822C99.2936 12.8356 99.5468 12.7098 99.8255 12.7123ZM110.174 12.7123C110.453 12.7098 110.706 12.8356 110.889 13.0822C111.14 13.4187 111.196 14.0531 110.992 14.5616C110.696 13.9118 110.262 13.3365 109.715 12.8356C109.866 12.756 110.023 12.7149 110.174 12.7123ZM102.821 14.3562C102.277 14.3562 101.834 14.8904 101.834 15.5479C101.834 16.2055 102.277 16.7397 102.821 16.7397C103.366 16.7397 103.809 16.2055 103.809 15.5479C103.809 14.8904 103.366 14.3562 102.821 14.3562ZM107.179 14.3562C106.634 14.3562 106.191 14.8904 106.191 15.5479C106.191 16.2055 106.634 16.7397 107.179 16.7397C107.723 16.7397 108.166 16.2055 108.166 15.5479C108.166 14.8904 107.723 14.3562 107.179 14.3562ZM102.294 18.4041C102.64 19.2697 103.713 20.1096 105 20.1096C106.287 20.1096 107.377 19.2697 107.723 18.4041C107.094 18.8947 106.1 19.226 105 19.226C103.9 19.226 102.923 18.8947 102.294 18.4041Z" fill="#2D383F"/>
<rect opacity="0.3" x="45.5" y="0.5" width="29" height="29" stroke="#2D383F"/>
<path d="M59.5 9.42035C60.4159 9.42035 61.1607 10.1874 61.1607 11.1305C61.1607 12.0708 60.4159 12.8378 59.5 12.8378C58.5841 12.8378 57.8393 12.0708 57.8393 11.1305C57.8393 10.1874 58.5841 9.42035 59.5 9.42035ZM59.5 15.2582C61.7124 15.2582 63.5111 13.406 63.5111 11.1305C63.5111 8.85219 61.7124 7 59.5 7C57.2876 7 55.4917 8.85219 55.4917 11.1305C55.4917 13.406 57.2876 15.2582 59.5 15.2582ZM61.1221 18.6273C61.9386 18.4342 62.7248 18.1018 63.4504 17.6331C63.9993 17.278 64.1649 16.5308 63.82 15.9655C63.4724 15.3974 62.7497 15.2269 62.1979 15.5848C60.5566 16.6473 58.4434 16.6473 56.7993 15.5848C56.2503 15.2269 55.5248 15.3974 55.18 15.9655C54.8351 16.5308 55.0007 17.278 55.5496 17.6331C56.2752 18.1018 57.0614 18.4342 57.8779 18.6273L55.6351 20.934C55.1772 21.4056 55.1772 22.1726 55.6351 22.6442C55.8669 22.88 56.1648 22.9993 56.4655 22.9993C56.7662 22.9993 57.0669 22.88 57.2986 22.6442L59.5 20.3772L61.7042 22.6442C62.1621 23.1186 62.9042 23.1186 63.3649 22.6442C63.8228 22.1726 63.8228 21.4056 63.3649 20.934L61.1221 18.6273Z" fill="#2D383F"/>
<rect opacity="0.3" x="0.5" y="0.5" width="29" height="29" stroke="#2D383F"/>
<path d="M22.8574 19.0274C22.8144 18.9564 22.5484 18.3866 21.2683 17.2153C19.9282 15.9888 20.1082 16.188 21.7223 14.0673C22.7054 12.7757 23.0984 11.987 22.9754 11.6498C22.8584 11.3284 22.1353 11.4132 22.1353 11.4132L19.7312 11.427C19.7312 11.427 19.5531 11.4033 19.4201 11.4812C19.2911 11.5581 19.2081 11.7356 19.2081 11.7356C19.2081 11.7356 18.8271 12.7353 18.3191 13.5852C17.248 15.3785 16.8189 15.4732 16.6439 15.3618C16.2369 15.1025 16.3389 14.3187 16.3389 13.7626C16.3389 12.0245 16.6059 11.2998 15.8179 11.1125C15.5559 11.0504 15.3638 11.009 14.6948 11.0021C13.8367 10.9932 13.1097 11.005 12.6986 11.2032C12.4246 11.3353 12.2136 11.6301 12.3426 11.6468C12.5016 11.6676 12.8617 11.7425 13.0527 11.9988C13.2997 12.3291 13.2907 13.0725 13.2907 13.0725C13.2907 13.0725 13.4327 15.1183 12.9597 15.3726C12.6346 15.5471 12.1896 15.1912 11.2345 13.5635C10.7455 12.7304 10.3755 11.8085 10.3755 11.8085C10.3755 11.8085 10.3045 11.637 10.1775 11.5453C10.0234 11.4339 9.80743 11.3984 9.80743 11.3984L7.52126 11.4122C7.52126 11.4122 7.17824 11.4221 7.05223 11.569C6.94022 11.7001 7.04323 11.9702 7.04323 11.9702C7.04323 11.9702 8.83336 16.0983 10.8595 18.1795C12.7186 20.0873 14.8288 19.9621 14.8288 19.9621H15.7849C15.7849 19.9621 16.0739 19.9305 16.2209 19.7738C16.3569 19.6298 16.3519 19.3597 16.3519 19.3597C16.3519 19.3597 16.3329 18.0948 16.929 17.9084C17.516 17.725 18.2701 19.131 19.0691 19.6722C19.6732 20.0814 20.1322 19.9917 20.1322 19.9917L22.2693 19.9621C22.2693 19.9621 23.3874 19.8941 22.8574 19.0274Z" fill="#2D383F"/>
</g></symbol><symbol id="sun" viewBox="0 0 20 20"><g fill="none">
<path d="M13.545 6.45505C12.6455 5.55558 11.3757 4.97357 10 4.97357C8.62433 4.97357 7.35449 5.52912 6.45502 6.45505C5.55555 7.35451 4.97354 8.62435 4.97354 10C4.97354 11.3757 5.55555 12.6455 6.45502 13.545C7.35449 14.4444 8.62433 15.0265 10 15.0265C11.3757 15.0265 12.6455 14.4709 13.545 13.545C14.4444 12.6455 15.0265 11.3757 15.0265 10C15.0265 8.62435 14.4709 7.35451 13.545 6.45505ZM12.5926 12.5926C11.9312 13.254 11.0053 13.6508 10 13.6508C8.9947 13.6508 8.06878 13.254 7.4074 12.5926C6.74603 11.9312 6.3492 11.0053 6.3492 10C6.3492 8.99472 6.74603 8.0688 7.4074 7.40742C8.06878 6.74605 8.9947 6.34923 10 6.34923C11.0053 6.34923 11.9312 6.74605 12.5926 7.40742C13.254 8.0688 13.6508 8.99472 13.6508 10C13.6508 11.0053 13.254 11.9312 12.5926 12.5926Z" fill="white"/>
<path d="M19.3122 9.3122H17.2751C16.9048 9.3122 16.5873 9.62966 16.5873 10C16.5873 10.3704 16.9048 10.6879 17.2751 10.6879H19.3122C19.6825 10.6879 20 10.3704 20 10C20 9.62966 19.6825 9.3122 19.3122 9.3122Z" fill="white"/>
<path d="M9.99999 16.5873C9.62962 16.5873 9.31216 16.9048 9.31216 17.2751V19.3122C9.31216 19.6825 9.62962 20 9.99999 20C10.3704 20 10.6878 19.6825 10.6878 19.3122V17.2751C10.6878 16.9048 10.3704 16.5873 9.99999 16.5873Z" fill="white"/>
<path d="M17.0635 16.1111L15.6085 14.656C15.3704 14.3915 14.9207 14.3915 14.6561 14.656C14.3916 14.9206 14.3916 15.3439 14.6561 15.6084L16.1111 17.0634C16.3757 17.328 16.799 17.328 17.0635 17.0634C17.3281 16.7989 17.3281 16.3756 17.0635 16.1111Z" fill="white"/>
<path d="M9.99999 0C9.62962 0 9.31216 0.317459 9.31216 0.687829V2.72486C9.31216 3.09523 9.62962 3.41269 9.99999 3.41269C10.3704 3.41269 10.6878 3.09523 10.6878 2.72486V0.687829C10.6878 0.317459 10.3704 0 9.99999 0Z" fill="white"/>
<path d="M17.0899 2.93653C16.8254 2.67198 16.4021 2.67198 16.1376 2.93653L14.6825 4.39155C14.418 4.6561 14.418 5.07938 14.6825 5.34393C14.9206 5.60848 15.3704 5.60848 15.6349 5.34393L17.0899 3.88891C17.3545 3.62436 17.3545 3.20108 17.0899 2.93653Z" fill="white"/>
<path d="M2.72487 9.3122H0.687831C0.31746 9.3122 0 9.62966 0 10C0 10.3704 0.291005 10.6879 0.687831 10.6879H2.72487C3.09524 10.6879 3.4127 10.3704 3.4127 10C3.4127 9.62966 3.09524 9.3122 2.72487 9.3122Z" fill="white"/>
<path d="M5.31746 14.656C5.07937 14.3915 4.62963 14.3915 4.36508 14.656L2.91005 16.1111C2.6455 16.3756 2.6455 16.7989 2.91005 17.0634C3.1746 17.328 3.59788 17.328 3.86243 17.0634L5.31746 15.6084C5.58201 15.3439 5.58201 14.9206 5.31746 14.656Z" fill="white"/>
<path d="M5.31746 4.39155L3.86243 2.93653C3.59788 2.67198 3.1746 2.67198 2.91005 2.93653C2.6455 3.20108 2.6455 3.62436 2.91005 3.88891L4.36508 5.34393C4.62963 5.60848 5.05291 5.60848 5.31746 5.34393C5.58201 5.07938 5.58201 4.6561 5.31746 4.39155Z" fill="white"/>
</g></symbol><symbol id="vk" viewBox="0 0 24 24"><g fill="none">
<rect x="0.5" y="0.5" width="23" height="23" stroke="#0266C1" stroke-opacity="0.1"/>
<path d="M18.9258 15.2249C18.9088 15.1883 18.893 15.1579 18.8783 15.1336C18.6354 14.6955 18.1712 14.1577 17.4861 13.5201L17.4716 13.5055L17.4643 13.4983L17.457 13.491H17.4497C17.1387 13.1941 16.9418 12.9945 16.8593 12.8923C16.7084 12.6976 16.6746 12.5005 16.7571 12.3008C16.8154 12.1499 17.0342 11.8313 17.4131 11.3446C17.6125 11.0866 17.7703 10.8798 17.8869 10.724C18.7276 9.60458 19.0921 8.88922 18.9803 8.5777L18.9369 8.5049C18.9077 8.46107 18.8324 8.42098 18.711 8.38441C18.5894 8.34793 18.434 8.34189 18.2444 8.36621L16.1452 8.38073C16.1111 8.36866 16.0626 8.36979 15.9993 8.38441C15.9361 8.39904 15.9045 8.40638 15.9045 8.40638L15.868 8.42466L15.839 8.44663C15.8147 8.46115 15.788 8.4867 15.7588 8.52321C15.7297 8.5596 15.7055 8.6023 15.6861 8.65096C15.4575 9.23987 15.1977 9.78741 14.906 10.2935C14.7262 10.5954 14.5611 10.8569 14.4103 11.0784C14.2597 11.2998 14.1333 11.4629 14.0313 11.5674C13.9292 11.6721 13.837 11.7559 13.7543 11.8193C13.6716 11.8826 13.6085 11.9094 13.5649 11.8996C13.5211 11.8898 13.4798 11.8801 13.4408 11.8704C13.3728 11.8266 13.3181 11.767 13.2769 11.6915C13.2355 11.6161 13.2076 11.5211 13.193 11.4068C13.1785 11.2923 13.17 11.1939 13.1675 11.1111C13.1652 11.0284 13.1663 10.9115 13.1712 10.7606C13.1763 10.6097 13.1785 10.5076 13.1785 10.454C13.1785 10.269 13.1821 10.0683 13.1894 9.85171C13.1967 9.63513 13.2027 9.46353 13.2076 9.33711C13.2126 9.21056 13.2149 9.07668 13.2149 8.93553C13.2149 8.79438 13.2063 8.68369 13.1894 8.60335C13.1726 8.52311 13.1469 8.44522 13.113 8.36971C13.0789 8.29428 13.0291 8.23593 12.9636 8.1945C12.898 8.15313 12.8165 8.1203 12.7194 8.0959C12.4618 8.03753 12.1338 8.00595 11.7353 8.00104C10.8315 7.99132 10.2507 8.04978 9.99317 8.17632C9.89112 8.22979 9.79878 8.30284 9.71621 8.39526C9.62872 8.50237 9.61651 8.56082 9.67968 8.57044C9.97129 8.61419 10.1777 8.71885 10.2992 8.88431L10.343 8.97199C10.3771 9.03526 10.4111 9.14725 10.4451 9.30783C10.4791 9.46842 10.501 9.64605 10.5107 9.84064C10.5349 10.196 10.5349 10.5002 10.5107 10.7532C10.4863 11.0064 10.4634 11.2034 10.4414 11.3446C10.4195 11.4857 10.3867 11.6001 10.343 11.6877C10.2992 11.7753 10.2701 11.8288 10.2555 11.8483C10.2409 11.8677 10.2288 11.88 10.2191 11.8848C10.156 11.909 10.0903 11.9213 10.0223 11.9213C9.95418 11.9213 9.87162 11.8872 9.77445 11.8191C9.6773 11.7509 9.57648 11.6573 9.47198 11.538C9.36749 11.4187 9.24964 11.252 9.11838 11.0379C8.98723 10.8238 8.85115 10.5707 8.71023 10.2787L8.59363 10.0669C8.52074 9.93068 8.42117 9.7323 8.29481 9.47197C8.16839 9.21154 8.05664 8.95962 7.95949 8.71627C7.92066 8.61406 7.86232 8.53625 7.78458 8.48271L7.7481 8.46074C7.72385 8.44131 7.68491 8.42067 7.6315 8.39868C7.57801 8.37672 7.5222 8.36097 7.46384 8.35127L5.4666 8.3658C5.26251 8.3658 5.12403 8.41211 5.05111 8.50459L5.02193 8.54835C5.00735 8.57271 5 8.61163 5 8.6652C5 8.71875 5.01458 8.78446 5.04376 8.86227C5.33532 9.54858 5.65239 10.2105 5.99496 10.848C6.33753 11.4856 6.63522 11.9992 6.88784 12.3883C7.14052 12.7777 7.39807 13.1452 7.6605 13.4907C7.92293 13.8363 8.09665 14.0577 8.18164 14.155C8.26673 14.2525 8.33357 14.3254 8.38216 14.3741L8.56442 14.5492C8.68104 14.6661 8.8523 14.806 9.07828 14.969C9.3043 15.1321 9.55453 15.2927 9.82908 15.451C10.1037 15.609 10.4232 15.738 10.7877 15.8378C11.1521 15.9376 11.5068 15.9777 11.8519 15.9584H12.6902C12.8602 15.9437 12.989 15.8901 13.0765 15.7977L13.1055 15.7611C13.125 15.7321 13.1433 15.6869 13.1601 15.6262C13.1772 15.5654 13.1857 15.4984 13.1857 15.4255C13.1807 15.2162 13.1966 15.0276 13.2329 14.8597C13.2693 14.6919 13.3107 14.5653 13.357 14.4801C13.4033 14.395 13.4555 14.3231 13.5136 14.2649C13.5719 14.2065 13.6134 14.1711 13.6378 14.159C13.662 14.1467 13.6813 14.1384 13.6959 14.1334C13.8125 14.0945 13.9498 14.1322 14.1079 14.2467C14.2658 14.361 14.414 14.5023 14.5525 14.6701C14.691 14.8381 14.8575 15.0266 15.0518 15.2358C15.2463 15.4451 15.4163 15.6007 15.562 15.7031L15.7078 15.7907C15.8051 15.8492 15.9314 15.9027 16.087 15.9514C16.2422 16 16.3782 16.0122 16.495 15.9878L18.361 15.9587C18.5456 15.9587 18.6892 15.9281 18.7911 15.8674C18.8931 15.8065 18.9538 15.7395 18.9733 15.6666C18.9928 15.5936 18.9939 15.5108 18.977 15.4183C18.9597 15.3259 18.9427 15.2614 18.9258 15.2249Z" fill="#2D383F"/>
</g></symbol></svg>